<svg width="400" height="150" viewBox="0 0 400 150" fill="none" xmlns="http://www.w3.org/2000/svg">
<path d="M144.203 98.2209C139.714 98.2209 135.746 97.3164 132.299 95.5091C128.851 93.66 126.186 91.0509 124.302 87.6824C122.419 84.3134 121.477 80.3487 121.477 75.7884C121.477 71.2279 122.419 67.2633 124.302 63.8944C126.186 60.4843 128.851 57.8755 132.299 56.0677C135.746 54.2189 139.714 53.2945 144.203 53.2945C147.25 53.2945 149.935 53.6232 152.26 54.2805C154.625 54.8968 156.789 55.8828 158.753 57.2386V66.1745C156.99 64.6955 154.966 63.6273 152.681 62.9699C150.436 62.2715 147.871 61.9223 144.985 61.9223C142.3 61.9223 139.874 62.4975 137.71 63.6478C135.586 64.7571 133.902 66.3594 132.66 68.4547C131.417 70.55 130.796 72.9945 130.796 75.7884C130.796 78.6232 131.357 81.1088 132.479 83.2452C133.642 85.3405 135.265 86.9634 137.349 88.1137C139.433 89.2641 141.839 89.8393 144.564 89.8393C147.049 89.8393 149.213 89.3874 151.057 88.4835V80.1638H144.263V73.2616H159.895V94.03C155.927 96.8236 150.697 98.2209 144.203 98.2209Z" fill="#81818B"/>
<path d="M162.006 67.7152H170.784V71.9675C171.947 70.5295 173.57 69.4407 175.654 68.7013C177.738 67.9206 180.104 67.5304 182.749 67.5304V74.6175C179.983 74.6175 177.538 75.0488 175.414 75.9116C173.329 76.7744 171.886 78.0891 171.085 79.8557V97.2964H162.006V67.7152Z" fill="#81818B"/>
<path d="M200.196 98.2209C194.664 98.2209 190.315 96.8645 187.149 94.1527C183.982 91.4009 182.399 87.5591 182.399 82.6289C182.399 77.7398 183.802 73.8779 186.608 71.0431C189.454 68.2082 193.502 66.7908 198.753 66.7908C202.2 66.7908 205.125 67.4482 207.531 68.7628C209.935 70.0775 211.76 71.9058 213.002 74.2476C214.245 76.5484 214.866 79.1573 214.866 82.0743V85.8335H191.057C191.698 89.6134 195.145 91.5036 201.398 91.5036C203.242 91.5036 205.146 91.3391 207.11 91.01C209.074 90.6815 210.778 90.2295 212.221 89.6544V96.1873C210.818 96.8027 209.014 97.2964 206.809 97.6664C204.605 98.0354 202.4 98.2209 200.196 98.2209ZM206.268 79.7941C206.148 77.822 205.426 76.3019 204.104 75.2337C202.781 74.1244 200.957 73.5697 198.632 73.5697C196.348 73.5697 194.544 74.1244 193.221 75.2337C191.899 76.343 191.177 77.8631 191.057 79.7941H206.268Z" fill="#81818B"/>
<path d="M233.475 98.2209C227.944 98.2209 223.595 96.8645 220.428 94.1527C217.262 91.4009 215.678 87.5591 215.678 82.6289C215.678 77.7398 217.081 73.8779 219.887 71.0431C222.733 68.2082 226.781 66.7908 232.032 66.7908C235.479 66.7908 238.405 67.4482 240.811 68.7628C243.215 70.0775 245.039 71.9058 246.281 74.2476C247.524 76.5484 248.145 79.1573 248.145 82.0743V85.8335H224.336C224.977 89.6134 228.425 91.5036 234.678 91.5036C236.522 91.5036 238.426 91.3391 240.389 91.01C242.353 90.6815 244.057 90.2295 245.5 89.6544V96.1873C244.097 96.8027 242.294 97.2964 240.089 97.6664C237.884 98.0354 235.68 98.2209 233.475 98.2209ZM239.548 79.7941C239.427 77.822 238.706 76.3019 237.384 75.2337C236.06 74.1244 234.237 73.5697 231.912 73.5697C229.627 73.5697 227.824 74.1244 226.501 75.2337C225.178 76.343 224.457 77.8631 224.336 79.7941H239.548Z" fill="#81818B"/>
<path d="M250.161 67.7152H258.938V71.3512C260.262 69.8311 261.824 68.7013 263.628 67.9617C265.472 67.1811 267.396 66.7908 269.4 66.7908C273.329 66.7908 276.255 67.8795 278.178 70.057C280.142 72.1935 281.125 75.0899 281.125 78.7465V97.2964H272.045V79.7941C272.045 75.9732 270.322 74.0628 266.874 74.0628C265.352 74.0628 263.929 74.4531 262.606 75.2337C261.283 75.9732 260.161 77.0825 259.239 78.5615V97.2964H250.161V67.7152Z" fill="#81818B"/>
<path d="M289.134 63.1548C287.732 63.1548 286.55 62.6824 285.588 61.7374C284.625 60.7925 284.145 59.601 284.145 58.163C284.145 56.7662 284.625 55.5953 285.588 54.6503C286.55 53.6643 287.732 53.1713 289.134 53.1713C290.537 53.1713 291.72 53.6643 292.682 54.6503C293.644 55.5953 294.125 56.7662 294.125 58.163C294.125 59.601 293.644 60.7925 292.682 61.7374C291.72 62.6824 290.537 63.1548 289.134 63.1548ZM284.565 67.7152H293.705V97.2964H284.565V67.7152Z" fill="#81818B"/>
<path d="M309.188 98.2209C307.024 98.2209 304.699 97.9736 302.214 97.4809C299.769 97.0291 297.845 96.3718 296.442 95.5091V88.237C298.045 89.223 299.969 90.0242 302.214 90.6404C304.459 91.2564 306.543 91.5645 308.467 91.5645C310.11 91.5645 311.313 91.4209 312.074 91.1336C312.835 90.8458 313.216 90.3117 313.216 89.5312C313.216 88.9149 312.996 88.4219 312.555 88.0521C312.114 87.6413 311.432 87.292 310.511 87.0045C309.629 86.6757 308.145 86.2033 306.061 85.587C303.617 84.8475 301.692 84.108 300.29 83.3685C298.927 82.5878 297.885 81.6224 297.164 80.472C296.482 79.3216 296.141 77.8425 296.141 76.0348C296.141 72.9534 297.323 70.6527 299.689 69.1326C302.093 67.5714 305.34 66.7908 309.429 66.7908C311.432 66.7908 313.497 67.0167 315.621 67.4687C317.785 67.8795 319.449 68.4342 320.612 69.1326V76.2197C319.449 75.4391 317.926 74.8023 316.042 74.3093C314.199 73.8163 312.395 73.5697 310.631 73.5697C308.987 73.5697 307.705 73.7341 306.783 74.0628C305.902 74.3915 305.46 75.0077 305.46 75.9116C305.46 76.6922 305.881 77.2879 306.723 77.6988C307.604 78.1096 309.228 78.6232 311.593 79.2395L312.796 79.5475C315.321 80.246 317.284 81.0266 318.687 81.8895C320.09 82.7111 321.072 83.7176 321.634 84.9091C322.235 86.0595 322.536 87.518 322.536 89.2846C322.536 91.9964 321.393 94.1736 319.109 95.8173C316.824 97.4191 313.517 98.2209 309.188 98.2209Z" fill="#81818B"/>
<path d="M324.634 51.7538H333.713V71.1047C335.076 69.6667 336.619 68.5985 338.342 67.9001C340.066 67.1605 341.91 66.7908 343.874 66.7908C347.802 66.7908 350.728 67.8795 352.652 70.057C354.616 72.1934 355.598 75.0899 355.598 78.7465V97.2964H346.52V79.7941C346.52 75.9732 344.796 74.0628 341.349 74.0628C339.825 74.0628 338.403 74.4531 337.08 75.2337C335.757 75.9732 334.635 77.0825 333.713 78.5615V97.2964H324.634V51.7538Z" fill="#81818B"/>
<path fill-rule="evenodd" clip-rule="evenodd" d="M90.4709 60.4735C90.4709 68.3016 84.2802 74.6476 76.6429 74.6476C69.0056 74.6476 62.8144 68.3016 62.8144 60.4735C62.8144 52.6453 69.0056 46.2993 76.6429 46.2993C84.2802 46.2993 90.4709 52.6453 90.4709 60.4735ZM44.4767 73.6175C59.5425 72.5766 72.6728 84.1384 73.8959 99.6136C74.0226 101.217 74.0165 102.8 73.8871 104.352C58.8213 105.393 45.691 93.8309 44.4679 78.3558C44.3413 76.7523 44.3473 75.169 44.4767 73.6175ZM83.6349 103.81C98.7326 102.556 110.012 89.0979 108.997 73.6555C107.483 73.5228 105.939 73.5166 104.374 73.6465C89.2763 74.9001 77.9967 88.3586 79.0122 103.801C80.5259 103.934 82.0704 103.94 83.6349 103.81Z" fill="#81818B"/>
</svg>
