<svg width="94" height="94" viewBox="0 0 94 94" fill="none" xmlns="http://www.w3.org/2000/svg">
<g clip-path="url(#clip0_1_74)">
<path opacity="0.06" d="M68 0H26C11.6406 0 0 11.6406 0 26V68C0 82.3594 11.6406 94 26 94H68C82.3594 94 94 82.3594 94 68V26C94 11.6406 82.3594 0 68 0Z" fill="#F6CA4F"/>
<path d="M47.0001 79.008C64.6776 79.008 79.008 64.6776 79.008 47.0001C79.008 29.3226 64.6776 14.9922 47.0001 14.9922C29.3226 14.9922 14.9922 29.3226 14.9922 47.0001C14.9922 64.6776 29.3226 79.008 47.0001 79.008Z" fill="#FF6D35"/>
<path d="M58.8125 61.4375H35.1875C32.3 61.4375 29.9375 59.075 29.9375 56.1875V37.8125C29.9375 34.925 32.3 32.5625 35.1875 32.5625H58.8125C61.7 32.5625 64.0625 34.925 64.0625 37.8125V56.1875C64.0625 59.075 61.7 61.4375 58.8125 61.4375Z" stroke="white" stroke-width="2" stroke-miterlimit="10" stroke-linecap="round" stroke-linejoin="round"/>
<path d="M29.9375 39.125L47 49.625L64.0625 39.125" stroke="white" stroke-width="2" stroke-miterlimit="10" stroke-linecap="round" stroke-linejoin="round"/>
</g>
<defs>
<clipPath id="clip0_1_74">
<rect width="94" height="94" fill="white"/>
</clipPath>
</defs>
</svg>
