<svg width="94" height="94" viewBox="0 0 94 94" fill="none" xmlns="http://www.w3.org/2000/svg">
<g clip-path="url(#clip0_1_82)">
<path opacity="0.06" d="M68 0H26C11.6406 0 0 11.6406 0 26V68C0 82.3594 11.6406 94 26 94H68C82.3594 94 94 82.3594 94 68V26C94 11.6406 82.3594 0 68 0Z" fill="#FF6F35"/>
<path d="M47.0001 79.008C64.6776 79.008 79.008 64.6776 79.008 47.0001C79.008 29.3226 64.6776 14.9922 47.0001 14.9922C29.3226 14.9922 14.9922 29.3226 14.9922 47.0001C14.9922 64.6776 29.3226 79.008 47.0001 79.008Z" fill="#FFCD1D"/>
<path d="M47 26.8333V67.1667" stroke="white" stroke-width="3" stroke-linecap="round" stroke-linejoin="round"/>
<path d="M56.1667 34.1667H42.4167C40.7149 34.1667 39.0828 34.8427 37.8794 36.0461C36.676 37.2494 36 38.8815 36 40.5833C36 42.2851 36.676 43.9172 37.8794 45.1206C39.0828 46.3239 40.7149 47 42.4167 47H51.5833C53.2851 47 54.9172 47.676 56.1206 48.8794C57.324 50.0827 58 51.7148 58 53.4167C58 55.1185 57.324 56.7506 56.1206 57.9539C54.9172 59.1573 53.2851 59.8333 51.5833 59.8333H36" stroke="white" stroke-width="3" stroke-linecap="round" stroke-linejoin="round"/>
</g>
<defs>
<clipPath id="clip0_1_82">
<rect width="94" height="94" fill="white"/>
</clipPath>
</defs>
</svg>
