<svg width="94" height="94" viewBox="0 0 94 94" fill="none" xmlns="http://www.w3.org/2000/svg">
<g clip-path="url(#clip0_1_70)">
<path opacity="0.06" d="M68 0H26C11.6406 0 0 11.6406 0 26V68C0 82.3594 11.6406 94 26 94H68C82.3594 94 94 82.3594 94 68V26C94 11.6406 82.3594 0 68 0Z" fill="#0089FF"/>
<path d="M47.0001 79.008C64.6776 79.008 79.008 64.6776 79.008 47.0001C79.008 29.3226 64.6776 14.9922 47.0001 14.9922C29.3226 14.9922 14.9922 29.3226 14.9922 47.0001C14.9922 64.6776 29.3226 79.008 47.0001 79.008Z" fill="#1B76FF"/>
<path fill-rule="evenodd" clip-rule="evenodd" d="M30.325 40.6659H36.102V63.2491H30.325C29.4552 63.2491 28.75 62.5775 28.75 61.7491V42.1659C28.75 41.3375 29.4552 40.6659 30.325 40.6659Z" stroke="white" stroke-width="2" stroke-linecap="round" stroke-linejoin="round"/>
<path fill-rule="evenodd" clip-rule="evenodd" d="M63.4936 59.021C63.1279 61.8356 61.2474 63.2491 57.9043 63.2491H40.4114C38.0347 63.2491 36.102 61.43 36.102 59.1931V40.693C41.6495 40.1522 44.4232 38.2156 44.4232 33.0081L44.4232 30.5126C44.4232 27.8823 46.6621 25.75 49.4239 25.75C50.4764 25.75 51.502 26.0662 52.3548 26.6537C53.5301 27.4649 54.279 29.0013 54.279 31.2136V38.4373C54.279 39.0518 55.3192 39.5557 56.3594 39.5557H61.9395C64.2902 39.5557 66.1968 41.3256 66.249 43.5257C66.2839 44.9924 65.3654 49.5325 63.4936 59.021Z" stroke="white" stroke-width="2" stroke-linecap="round" stroke-linejoin="round"/>
</g>
<defs>
<clipPath id="clip0_1_70">
<rect width="94" height="94" fill="white"/>
</clipPath>
</defs>
</svg>
