<svg width="94" height="94" viewBox="0 0 94 94" fill="none" xmlns="http://www.w3.org/2000/svg">
<g clip-path="url(#clip0_1_78)">
<path opacity="0.06" d="M68 0H26C11.6406 0 0 11.6406 0 26V68C0 82.3594 11.6406 94 26 94H68C82.3594 94 94 82.3594 94 68V26C94 11.6406 82.3594 0 68 0Z" fill="#5CC97B"/>
<path d="M47.0001 79.008C64.6776 79.008 79.008 64.6776 79.008 47.0001C79.008 29.3226 64.6776 14.9922 47.0001 14.9922C29.3226 14.9922 14.9922 29.3226 14.9922 47.0001C14.9922 64.6776 29.3226 79.008 47.0001 79.008Z" fill="#5CC97B"/>
<path fill-rule="evenodd" clip-rule="evenodd" d="M50.4283 54.9247C48.1365 56.4402 45.3639 57.2745 42.4096 57.1525C34.9373 56.8439 29.1297 50.5356 29.4383 43.063C29.7469 35.5903 36.0549 29.7837 43.5272 30.0923C50.9983 30.4008 56.8072 36.7079 56.4986 44.1806C56.3898 46.8147 55.5354 49.2419 54.1473 51.2673L63.2703 60.1253C64.3959 61.3457 64.3556 63.2321 63.1991 64.401L63.1459 64.4499L63.0897 64.4986C61.8326 65.5549 59.9492 65.4417 58.8247 64.2203L50.4283 54.9247ZM42.5386 54.0292C36.7909 53.7918 32.3233 48.9392 32.5607 43.1915C32.7981 37.4438 37.6506 32.9762 43.3983 33.2136C49.146 33.451 53.6137 38.3035 53.3763 44.0512C53.1389 49.7989 48.2863 54.2665 42.5386 54.0292Z" fill="white"/>
</g>
<defs>
<clipPath id="clip0_1_78">
<rect width="94" height="94" fill="white"/>
</clipPath>
</defs>
</svg>
