<svg width="400" height="150" viewBox="0 0 400 150" fill="none" xmlns="http://www.w3.org/2000/svg">
<path d="M56.5631 53.3904C60.6663 49.6535 66.2379 47.4723 71.8848 47.201C73.8175 47.201 75.7559 47.212 77.6886 47.1954C77.5899 49.1719 77.6886 51.1538 77.6305 53.1302C77.3578 57.5481 75.6456 61.8663 72.7612 65.3319C69.012 69.9935 63.278 73.1213 57.1899 73.9297C54.5318 74.3393 51.833 74.0791 49.1576 74.1511C49.204 71.9753 49.0589 69.7942 49.2388 67.6239C49.7612 62.2428 52.4251 57.0886 56.5631 53.3904Z" fill="#81818B"/>
<path d="M79.4782 47.1954C81.5502 47.2176 83.6221 47.1844 85.6998 47.2065C90.8709 47.5552 95.9724 49.4486 99.8663 52.7317C104.161 56.2471 107.104 61.274 107.858 66.6441C108.189 69.1353 107.98 71.6542 108.108 74.1566C106.297 74.1511 104.492 74.1456 102.681 74.1566C98.23 74.0404 93.854 72.6674 90.128 70.3533C88.4101 69.1796 86.6458 67.9894 85.3574 66.3617C82.531 63.35 80.61 59.5688 79.8845 55.5828C79.3389 52.8146 79.5595 49.9912 79.4782 47.1954Z" fill="#81818B"/>
<path d="M49.1615 75.7398C51.0013 75.8394 52.8469 75.6567 54.6808 75.8505C62.5332 76.011 70.1535 80.2185 74.2218 86.6239C76.555 90.2113 77.8085 94.4634 77.6461 98.6869C77.6402 100.072 77.6635 101.45 77.6228 102.829C74.7094 102.745 71.7669 102.972 68.8824 102.435C62.4752 101.406 56.5845 97.7681 53.0383 92.5753C50.3512 88.7996 49.0106 84.188 49.1499 79.6317C49.1499 78.3306 49.1499 77.0352 49.1615 75.7398Z" fill="#81818B"/>
<path d="M98.3017 76.3264C101.459 75.6564 104.714 75.7671 107.924 75.7671L108.064 75.9001C107.994 78.7955 108.232 81.7241 107.623 84.5863C106.34 91.0083 101.883 96.7434 95.8875 99.8934C92.1557 101.876 87.8726 102.85 83.6069 102.806C82.243 102.812 80.8733 102.784 79.5095 102.822C79.5095 100.425 79.405 98.0175 79.6894 95.6306C80.351 89.8567 83.6243 84.4811 88.3311 80.8494C91.2445 78.6571 94.6687 77.0682 98.3017 76.3264Z" fill="#81818B"/>
<path d="M131.889 92.1056C131.889 93.0803 131.535 93.9047 130.829 94.5797C130.16 95.2172 129.315 95.5359 128.294 95.5359C127.311 95.5359 126.486 95.2172 125.818 94.5797C125.15 93.9047 124.816 93.0803 124.816 92.1056V57.3559C124.816 56.3812 125.15 55.5753 125.818 54.9381C126.525 54.2633 127.39 53.9259 128.412 53.9259C129.433 53.9259 130.258 54.2633 130.887 54.9381C131.555 55.5753 131.889 56.3812 131.889 57.3559V92.1056Z" fill="#81818B"/>
<path d="M160.281 65.453C161.302 65.453 162.147 65.7903 162.816 66.4651C163.483 67.1023 163.817 67.9083 163.817 68.8829V83.1652C163.817 87.1387 162.658 90.2875 160.34 92.6117C158.021 94.9359 154.681 96.0975 150.318 96.0975C145.957 96.0975 142.616 94.9359 140.298 92.6117C138.019 90.2875 136.879 87.1387 136.879 83.1652V68.8829C136.879 67.9083 137.213 67.1023 137.881 66.4651C138.549 65.7903 139.394 65.453 140.416 65.453C141.438 65.453 142.282 65.7903 142.95 66.4651C143.619 67.1023 143.953 67.9083 143.953 68.8829V83.1652C143.953 85.4518 144.484 87.1574 145.544 88.282C146.605 89.3692 148.197 89.9126 150.318 89.9126C152.481 89.9126 154.091 89.3692 155.153 88.282C156.213 87.1574 156.744 85.4518 156.744 83.1652V68.8829C156.744 67.9083 157.078 67.1023 157.746 66.4651C158.414 65.7903 159.259 65.453 160.281 65.453Z" fill="#81818B"/>
<path d="M185.092 64.8907C188.236 64.8907 190.554 65.6216 192.048 67.0836C193.541 68.5081 194.524 70.3636 194.995 72.6503L193.993 72.1442L194.465 71.2446C194.936 70.3823 195.663 69.464 196.646 68.4893C197.628 67.4772 198.807 66.6338 200.182 65.959C201.597 65.2467 203.169 64.8907 204.898 64.8907C207.728 64.8907 209.869 65.4717 211.323 66.6337C212.817 67.7958 213.838 69.3515 214.388 71.3008C214.939 73.2126 215.214 75.3493 215.214 77.7109V92.1056C215.214 93.0803 214.88 93.9047 214.211 94.5797C213.543 95.2172 212.699 95.5359 211.677 95.5359C210.656 95.5359 209.81 95.2172 209.142 94.5797C208.474 93.9047 208.14 93.0803 208.14 92.1056V77.7109C208.14 76.4738 207.983 75.3681 207.669 74.3933C207.354 73.3812 206.784 72.5753 205.959 71.9755C205.134 71.3757 203.955 71.0758 202.423 71.0758C200.929 71.0758 199.652 71.3757 198.591 71.9755C197.529 72.5753 196.724 73.3812 196.174 74.3933C195.663 75.3681 195.407 76.4738 195.407 77.7109V92.1056C195.407 93.0803 195.073 93.9047 194.406 94.5797C193.738 95.2172 192.892 95.5359 191.871 95.5359C190.849 95.5359 190.004 95.2172 189.337 94.5797C188.668 93.9047 188.334 93.0803 188.334 92.1056V77.7109C188.334 76.4738 188.177 75.3681 187.862 74.3933C187.548 73.3812 186.978 72.5753 186.153 71.9755C185.328 71.3757 184.148 71.0758 182.616 71.0758C181.123 71.0758 179.846 71.3757 178.784 71.9755C177.724 72.5753 176.918 73.3812 176.368 74.3933C175.857 75.3681 175.602 76.4738 175.602 77.7109V92.1056C175.602 93.0803 175.268 93.9047 174.6 94.5797C173.931 95.2172 173.087 95.5359 172.065 95.5359C171.043 95.5359 170.199 95.2172 169.53 94.5797C168.862 93.9047 168.528 93.0803 168.528 92.1056V68.8829C168.528 67.9083 168.862 67.1023 169.53 66.4651C170.199 65.7903 171.043 65.453 172.065 65.453C173.087 65.453 173.931 65.7903 174.6 66.4651C175.268 67.1023 175.602 67.9083 175.602 68.8829V71.3008L174.717 71.1321C175.071 70.4948 175.563 69.82 176.191 69.1078C176.82 68.3581 177.586 67.6646 178.49 67.0273C179.394 66.3901 180.396 65.884 181.496 65.5091C182.597 65.0968 183.796 64.8907 185.092 64.8907Z" fill="#81818B"/>
<path d="M226.583 92.1056C226.583 93.0803 226.249 93.9047 225.58 94.5797C224.913 95.2172 224.068 95.5359 223.046 95.5359C222.025 95.5359 221.179 95.2172 220.511 94.5797C219.844 93.9047 219.51 93.0803 219.51 92.1056V68.8829C219.51 67.9083 219.844 67.1023 220.511 66.4651C221.179 65.7903 222.025 65.453 223.046 65.453C224.068 65.453 224.913 65.7903 225.58 66.4651C226.249 67.1023 226.583 67.9083 226.583 68.8829V92.1056ZM222.987 61.798C221.651 61.798 220.708 61.5919 220.157 61.1795C219.608 60.7672 219.333 60.0362 219.333 58.9866V57.9182C219.333 56.8312 219.628 56.1001 220.216 55.7253C220.845 55.3129 221.789 55.1067 223.046 55.1067C224.422 55.1067 225.385 55.3129 225.934 55.7253C226.485 56.1376 226.76 56.8686 226.76 57.9182V58.9866C226.76 60.0737 226.465 60.8234 225.875 61.2357C225.287 61.6106 224.323 61.798 222.987 61.798Z" fill="#81818B"/>
<path d="M247.764 64.8907C250.672 64.8907 252.873 65.4717 254.366 66.6337C255.899 67.7958 256.94 69.3515 257.49 71.3008C258.08 73.2126 258.374 75.3493 258.374 77.7109V92.1056C258.374 93.0803 258.04 93.9047 257.372 94.5797C256.704 95.2172 255.859 95.5359 254.837 95.5359C253.816 95.5359 252.971 95.2172 252.303 94.5797C251.634 93.9047 251.3 93.0803 251.3 92.1056V77.7109C251.3 76.4738 251.124 75.3681 250.771 74.3933C250.456 73.3812 249.866 72.5753 249.001 71.9755C248.138 71.3757 246.899 71.0758 245.288 71.0758C243.716 71.0758 242.38 71.3757 241.28 71.9755C240.219 72.5753 239.394 73.3812 238.804 74.3933C238.254 75.3681 237.978 76.4738 237.978 77.7109V92.1056C237.978 93.0803 237.645 93.9047 236.977 94.5797C236.309 95.2172 235.463 95.5359 234.442 95.5359C233.42 95.5359 232.575 95.2172 231.908 94.5797C231.239 93.9047 230.905 93.0803 230.905 92.1056V68.8829C230.905 67.9083 231.239 67.1023 231.908 66.4651C232.575 65.7903 233.42 65.453 234.442 65.453C235.463 65.453 236.309 65.7903 236.977 66.4651C237.645 67.1023 237.978 67.9083 237.978 68.8829V71.3008L237.095 71.1321C237.449 70.4948 237.959 69.82 238.627 69.1078C239.295 68.3581 240.082 67.6646 240.985 67.0273C241.889 66.3901 242.911 65.884 244.05 65.5091C245.19 65.0968 246.428 64.8907 247.764 64.8907Z" fill="#81818B"/>
<path d="M293.371 80.5223C293.371 83.5962 292.644 86.314 291.19 88.6756C289.775 90.9998 287.85 92.8178 285.413 94.1297C283.016 95.4422 280.324 96.0975 277.338 96.0975C274.351 96.0975 271.639 95.4422 269.203 94.1297C266.806 92.8178 264.881 90.9998 263.426 88.6756C262.012 86.314 261.304 83.5962 261.304 80.5223C261.304 77.4485 262.012 74.7495 263.426 72.4253C264.881 70.0637 266.806 68.2269 269.203 66.9149C271.639 65.5654 274.351 64.8907 277.338 64.8907C280.324 64.8907 283.016 65.5654 285.413 66.9149C287.85 68.2269 289.775 70.0637 291.19 72.4253C292.644 74.7495 293.371 77.4485 293.371 80.5223ZM286.298 80.5223C286.298 78.6106 285.885 76.9612 285.059 75.5742C284.273 74.1497 283.193 73.0439 281.817 72.2567C280.482 71.4695 278.988 71.0758 277.338 71.0758C275.687 71.0758 274.174 71.4695 272.799 72.2567C271.462 73.0439 270.381 74.1497 269.557 75.5742C268.771 76.9612 268.377 78.6106 268.377 80.5223C268.377 82.3967 268.771 84.046 269.557 85.4706C270.381 86.8575 271.462 87.9446 272.799 88.7318C274.174 89.5191 275.687 89.9126 277.338 89.9126C278.988 89.9126 280.482 89.5191 281.817 88.7318C283.193 87.9446 284.273 86.8575 285.059 85.4706C285.885 84.046 286.298 82.3967 286.298 80.5223Z" fill="#81818B"/>
<path d="M319.735 65.453C320.757 65.453 321.602 65.7903 322.27 66.4651C322.938 67.1023 323.272 67.9083 323.272 68.8829V83.1652C323.272 87.1387 322.113 90.2875 319.794 92.6117C317.475 94.9359 314.136 96.0975 309.773 96.0975C305.411 96.0975 302.071 94.9359 299.752 92.6117C297.473 90.2875 296.333 87.1387 296.333 83.1652V68.8829C296.333 67.9083 296.667 67.1023 297.336 66.4651C298.004 65.7903 298.848 65.453 299.87 65.453C300.892 65.453 301.737 65.7903 302.405 66.4651C303.073 67.1023 303.407 67.9083 303.407 68.8829V83.1652C303.407 85.4518 303.937 87.1574 304.999 88.282C306.06 89.3692 307.651 89.9126 309.773 89.9126C311.934 89.9126 313.546 89.3692 314.606 88.282C315.668 87.1574 316.199 85.4518 316.199 83.1652V68.8829C316.199 67.9083 316.533 67.1023 317.2 66.4651C317.868 65.7903 318.714 65.453 319.735 65.453Z" fill="#81818B"/>
<path d="M326.155 90.8686C325.762 90.3438 325.585 89.669 325.625 88.8443C325.664 88.0196 326.175 87.3074 327.158 86.7076C327.786 86.3327 328.454 86.1828 329.162 86.2578C329.868 86.2953 330.556 86.6326 331.225 87.2699C332.365 88.3569 333.563 89.2004 334.821 89.8002C336.078 90.3999 337.65 90.6998 339.536 90.6998C340.126 90.6623 340.773 90.5874 341.481 90.4749C342.189 90.325 342.798 90.0251 343.308 89.5753C343.858 89.088 344.134 88.3569 344.134 87.3823C344.134 86.5577 343.839 85.9016 343.249 85.4143C342.66 84.927 341.874 84.5147 340.891 84.1773C339.949 83.8399 338.887 83.5213 337.709 83.2214C336.49 82.884 335.232 82.5092 333.936 82.0968C332.678 81.6845 331.519 81.1597 330.458 80.5223C329.398 79.8476 328.533 78.9667 327.864 77.8796C327.197 76.7925 326.863 75.4242 326.863 73.7749C326.863 71.9005 327.412 70.3074 328.513 68.9954C329.614 67.6834 331.028 66.6713 332.757 65.959C334.526 65.2467 336.372 64.8907 338.298 64.8907C339.516 64.8907 340.793 65.0406 342.13 65.3405C343.465 65.6029 344.743 66.0527 345.961 66.69C347.179 67.2897 348.201 68.0957 349.026 69.1078C349.458 69.6701 349.714 70.3448 349.793 71.1321C349.871 71.9193 349.498 72.6315 348.672 73.2688C348.084 73.7186 347.396 73.9248 346.609 73.8873C345.824 73.8124 345.175 73.55 344.664 73.1002C343.996 72.2754 343.093 71.6194 341.953 71.1321C340.852 70.6448 339.575 70.4011 338.121 70.4011C337.532 70.4011 336.884 70.4761 336.176 70.626C335.508 70.7385 334.919 71.0197 334.408 71.4695C333.897 71.8818 333.641 72.5566 333.641 73.4937C333.641 74.3559 333.936 75.0494 334.526 75.5742C335.115 76.0615 335.901 76.4738 336.884 76.8113C337.905 77.1112 338.986 77.4111 340.126 77.7109C341.304 78.0108 342.503 78.3669 343.721 78.7792C344.94 79.1917 346.059 79.7351 347.081 80.4099C348.103 81.0847 348.928 81.9656 349.557 83.0527C350.186 84.1023 350.5 85.4518 350.5 87.1012C350.5 89.013 349.911 90.6437 348.731 91.9931C347.553 93.3427 346.079 94.3734 344.311 95.0859C342.542 95.7609 340.734 96.0975 338.887 96.0975C336.569 96.0975 334.251 95.7234 331.932 94.9734C329.614 94.1859 327.687 92.8178 326.155 90.8686Z" fill="#81818B"/>
</svg>
