<svg width="400" height="150" viewBox="0 0 400 150" fill="none" xmlns="http://www.w3.org/2000/svg">
<path d="M135.368 58.1616C138.392 58.1616 141.009 58.6483 143.22 59.6218C145.463 60.5952 147.185 61.9769 148.388 63.7669C149.591 65.5568 150.193 67.6764 150.193 70.1258C150.193 72.5437 149.591 74.6633 148.388 76.4847C147.185 78.2746 145.463 79.6563 143.22 80.6301C141.009 81.5717 138.392 82.0429 135.368 82.0429H128.493V91.134H120.594V58.1616H135.368ZM134.93 75.8252C137.302 75.8252 139.107 75.3385 140.342 74.365C141.578 73.3601 142.195 71.9471 142.195 70.1258C142.195 68.273 141.578 66.8599 140.342 65.8865C139.107 64.8816 137.302 64.3792 134.93 64.3792H128.493V75.8252H134.93Z" fill="#81818B"/>
<path d="M160.124 69.1366C161.033 67.9119 162.253 66.9855 163.78 66.3575C165.341 65.7294 167.128 65.4155 169.144 65.4155V72.1983C168.299 72.1355 167.73 72.1041 167.437 72.1041C165.259 72.1041 163.553 72.7008 162.318 73.894C161.082 75.0558 160.464 76.8144 160.464 79.1694V91.134H152.858V65.7923H160.124V69.1366Z" fill="#81818B"/>
<path d="M183.474 91.5102C180.711 91.5102 178.224 90.9613 176.014 89.8618C173.836 88.7317 172.129 87.1767 170.894 85.1984C169.659 83.2202 169.041 80.9749 169.041 78.463C169.041 75.9508 169.659 73.7056 170.894 71.7272C172.129 69.7489 173.836 68.2103 176.014 67.1112C178.224 65.9807 180.711 65.4155 183.474 65.4155C186.237 65.4155 188.708 65.9807 190.886 67.1112C193.064 68.2103 194.771 69.7489 196.007 71.7272C197.241 73.7056 197.859 75.9508 197.859 78.463C197.859 80.9749 197.241 83.2202 196.007 85.1984C194.771 87.1767 193.064 88.7317 190.886 89.8618C188.708 90.9613 186.237 91.5102 183.474 91.5102ZM183.474 85.4811C185.425 85.4811 187.018 84.8537 188.253 83.5971C189.521 82.3099 190.154 80.5987 190.154 78.463C190.154 76.3277 189.521 74.6319 188.253 73.3758C187.018 72.0883 185.425 71.4446 183.474 71.4446C181.524 71.4446 179.915 72.0883 178.647 73.3758C177.379 74.6319 176.745 76.3277 176.745 78.463C176.745 80.5987 177.379 82.3099 178.647 83.5971C179.915 84.8537 181.524 85.4811 183.474 85.4811Z" fill="#81818B"/>
<path d="M232.348 58.1616V91.134H225.863L208.844 71.1149V91.134H201.042V58.1616H207.576L224.546 78.1804V58.1616H232.348Z" fill="#81818B"/>
<path d="M248.031 65.4155C252.094 65.4155 255.215 66.3575 257.393 68.2417C259.571 70.0944 260.66 72.9049 260.66 76.6731V91.134H253.541V87.9777C252.111 90.333 249.445 91.5102 245.544 91.5102C243.528 91.5102 241.772 91.1811 240.277 90.5215C238.815 89.8618 237.693 88.9516 236.913 87.7893C236.133 86.6277 235.742 85.3084 235.742 83.8327C235.742 81.4775 236.653 79.6249 238.473 78.2746C240.326 76.9243 243.171 76.2492 247.007 76.2492H253.053C253.053 74.6476 252.55 73.423 251.541 72.5751C250.533 71.6958 249.022 71.2562 247.007 71.2562C245.609 71.2562 244.227 71.476 242.862 71.9157C241.529 72.3239 240.391 72.8892 239.448 73.6114L236.718 68.4771C238.148 67.5037 239.854 66.7501 241.837 66.2162C243.853 65.6824 245.918 65.4155 248.031 65.4155ZM247.446 86.5649C248.746 86.5649 249.9 86.2822 250.907 85.7168C251.915 85.1199 252.63 84.2568 253.053 83.1259V80.5359H247.836C244.715 80.5359 243.154 81.5246 243.154 83.5029C243.154 84.4453 243.528 85.1984 244.276 85.7639C245.056 86.2979 246.112 86.5649 247.446 86.5649Z" fill="#81818B"/>
<path d="M282.027 89.9089C281.28 90.4429 280.353 90.8513 279.248 91.134C278.175 91.3845 277.037 91.5102 275.834 91.5102C272.714 91.5102 270.292 90.7414 268.569 89.2029C266.878 87.6636 266.033 85.4026 266.033 82.4199V72.0099H261.986V66.3575H266.033V60.187H273.64V66.3575H280.174V72.0099H273.64V82.3256C273.64 83.3929 273.916 84.2254 274.469 84.8222C275.054 85.3869 275.867 85.6696 276.907 85.6696C278.11 85.6696 279.134 85.3555 279.979 84.728L282.027 89.9089Z" fill="#81818B"/>
<path d="M310.289 65.7923V91.134H303.072V88.1191C302.064 89.2178 300.861 90.066 299.463 90.6628C298.065 91.2283 296.554 91.5102 294.928 91.5102C291.482 91.5102 288.752 90.5529 286.736 88.6374C284.72 86.722 283.713 83.8798 283.713 80.1118V65.7923H291.32V79.028C291.32 83.1102 293.092 85.1513 296.635 85.1513C298.455 85.1513 299.919 84.5866 301.024 83.4557C302.128 82.2942 302.681 80.583 302.681 78.3217V65.7923H310.289Z" fill="#81818B"/>
<path d="M322.163 69.1366C323.073 67.9119 324.293 66.9855 325.82 66.3575C327.38 65.7294 329.169 65.4155 331.185 65.4155V72.1983C330.339 72.1355 329.77 72.1041 329.478 72.1041C327.299 72.1041 325.593 72.7008 324.358 73.894C323.122 75.0558 322.505 76.8144 322.505 79.1694V91.134H314.898V65.7923H322.163V69.1366Z" fill="#81818B"/>
<path d="M358.729 78.5576C358.729 78.651 358.681 79.3107 358.583 80.5359H338.737C339.094 82.1058 339.939 83.3458 341.272 84.2568C342.605 85.167 344.263 85.6225 346.246 85.6225C347.611 85.6225 348.814 85.434 349.854 85.0571C350.927 84.6495 351.919 84.0212 352.828 83.173L356.876 87.4123C354.406 90.1445 350.797 91.5102 346.05 91.5102C343.093 91.5102 340.476 90.9613 338.2 89.8618C335.924 88.7317 334.169 87.1767 332.933 85.1984C331.698 83.2202 331.081 80.9749 331.081 78.463C331.081 75.9822 331.682 73.7527 332.885 71.7744C334.12 69.7646 335.794 68.2103 337.907 67.1112C340.053 65.9807 342.442 65.4155 345.076 65.4155C347.644 65.4155 349.968 65.9493 352.049 67.0169C354.129 68.0846 355.754 69.6233 356.925 71.6331C358.128 73.6114 358.729 75.9194 358.729 78.5576ZM345.124 70.9736C343.402 70.9736 341.954 71.4446 340.785 72.3867C339.614 73.3288 338.899 74.6163 338.639 76.2492H351.561C351.301 74.6476 350.585 73.3758 349.415 72.4338C348.245 71.4603 346.815 70.9736 345.124 70.9736Z" fill="#81818B"/>
<path fill-rule="evenodd" clip-rule="evenodd" d="M77.2724 39.7992C76.1134 39.1515 74.6843 39.1515 73.5253 39.7992C65.2929 44.3993 59.7404 53.0062 59.7404 62.8702C59.7404 64.276 59.8533 65.6563 60.0705 67.0032C54.4034 65.1441 48.2672 65.8206 43.2552 68.6103C42.0951 69.2561 41.3805 70.4515 41.3817 71.7449C41.3876 78.5686 45.0572 85.2189 51.6292 88.884C54.8534 90.6825 58.3725 91.5369 61.8437 91.5385C61.3156 92.9843 61.0282 94.5393 61.0282 96.1594C61.0282 103.826 67.462 110.04 75.3983 110.04C83.335 110.04 89.7683 103.826 89.7683 96.1594C89.7683 94.5353 89.4797 92.9772 88.9496 91.5291C92.2139 91.4293 95.5017 90.5733 98.5293 88.884C105.102 85.2189 108.771 78.5686 108.776 71.7452C108.778 70.4518 108.063 69.2564 106.903 68.6106C102.089 65.9307 96.2366 65.2009 90.7602 66.7956C90.9561 65.5146 91.0569 64.2039 91.0569 62.8702C91.0569 53.0062 85.5049 44.3993 77.2724 39.7992ZM67.2237 62.8702C67.2237 56.4648 70.4344 50.7804 75.3988 47.2421C80.3633 50.7804 83.574 56.4648 83.574 62.8702C83.574 69.2755 80.3633 74.9599 75.3988 78.4981C70.4344 74.9599 67.2237 69.2755 67.2237 62.8702ZM90.1553 74.8738C93.6106 72.9467 97.6033 72.7226 101.091 73.9419C100.441 77.4693 98.2431 80.6969 94.7878 82.6241C91.3325 84.5513 87.3399 84.7751 83.8521 83.5563C84.5025 80.0285 86.7 76.8009 90.1553 74.8738ZM49.0676 73.9417C52.5552 72.7223 56.5478 72.9465 60.0031 74.8736C63.4586 76.8006 65.6558 80.0285 66.3065 83.5555C62.8187 84.7751 58.8262 84.5513 55.3708 82.6241C51.9155 80.6969 49.7182 77.469 49.0676 73.9417ZM68.5115 96.1594C68.5115 92.4856 71.5948 89.5068 75.3983 89.5068C79.2018 89.5068 82.2854 92.4856 82.2854 96.1594C82.2854 99.8332 79.2018 102.812 75.3983 102.812C71.5948 102.812 68.5115 99.8332 68.5115 96.1594Z" fill="#81818B"/>
</svg>
