<svg width="400" height="150" viewBox="0 0 400 150" fill="none" xmlns="http://www.w3.org/2000/svg">
<path d="M43.7979 85.9594L66.0066 76.3341L78.7895 83.5527L81.3719 107.235L65.6193 107.109L67.9434 90.6443L65.2319 89.1247L51.9324 99.2565L43.7979 85.9594Z" fill="#81818B"/>
<path d="M80.2106 82.5389L99.8372 96.5957L107.584 83.0455L91.8311 76.84V73.8006L107.584 67.4685L99.8372 54.0444L80.2106 68.1017V82.5389Z" fill="#81818B"/>
<path d="M78.7895 66.9624L81.3719 43.2803L65.6193 43.5336L67.9434 59.997L65.2319 61.5167L51.8033 51.3854L43.7979 64.5562L66.0066 74.181L78.7895 66.9624Z" fill="#81818B"/>
<path d="M160.138 72.4194V94.6065H168.616V66.3312H156.27V72.4194H160.138Z" fill="#81818B"/>
<path d="M159.873 62.3584C160.65 63.1494 161.834 63.5448 163.423 63.5448C165.014 63.5448 166.179 63.1494 166.92 62.3584C167.698 61.5325 168.086 60.5005 168.086 59.2625C168.086 57.9896 167.698 56.9577 166.92 56.1667C166.179 55.3412 165.014 54.9283 163.423 54.9283C161.834 54.9283 160.65 55.3412 159.873 56.1667C159.132 56.9577 158.761 57.9896 158.761 59.2625C158.761 60.5005 159.132 61.5325 159.873 62.3584Z" fill="#81818B"/>
<path d="M130.624 93.9869C133.026 95.0531 135.975 95.5867 139.472 95.5867C142.758 95.5867 145.583 95.0872 147.951 94.0901C150.318 93.0929 152.137 91.6994 153.408 89.9105C154.716 88.0875 155.369 85.9722 155.369 83.5642C155.369 81.2254 154.752 79.2475 153.515 77.6306C152.313 75.9797 150.636 74.6898 148.481 73.7612C146.326 72.7978 143.835 72.1959 141.009 71.9554L138.042 71.6974C136.276 71.5595 135.004 71.0954 134.227 70.304C133.449 69.513 133.061 68.5841 133.061 67.5181C133.061 66.6922 133.274 65.9357 133.696 65.2477C134.121 64.5253 134.756 63.9578 135.604 63.5449C136.488 63.1324 137.565 62.9259 138.837 62.9259C140.179 62.9259 141.292 63.1664 142.175 63.6483C142.369 63.7501 142.554 63.8589 142.727 63.9744L142.769 64.0031C142.834 64.0467 142.898 64.092 142.96 64.1377C143.497 64.5369 143.924 65.0101 144.242 65.5573C144.7 66.3142 144.931 67.1566 144.931 68.0856H153.408C153.408 65.6087 152.825 63.4589 151.66 61.636C150.495 59.7785 148.817 58.3511 146.627 57.3532C144.471 56.3213 141.875 55.8053 138.837 55.8053C135.94 55.8053 133.432 56.2872 131.312 57.2502C129.193 58.1791 127.533 59.5205 126.332 61.2745C125.165 63.0289 124.582 65.1102 124.582 67.5181C124.582 70.8545 125.731 73.5373 128.027 75.5671C130.323 77.5965 133.397 78.766 137.247 79.0755L140.162 79.3335C142.528 79.54 144.242 80.0044 145.302 80.7264C146.361 81.4144 146.891 82.3603 146.891 83.5642C146.891 84.1176 146.798 84.6365 146.612 85.1213C146.474 85.4813 146.284 85.8222 146.044 86.1443C145.477 86.8662 144.648 87.4338 143.553 87.8472C142.458 88.2597 141.098 88.4659 139.472 88.4659C137.671 88.4659 136.205 88.2256 135.075 87.7432C133.944 87.2276 133.097 86.5568 132.53 85.7318C132.001 84.9057 131.737 84.0117 131.737 83.0483H123.311C123.311 85.4906 123.929 87.658 125.165 89.5492C126.402 91.4071 128.221 92.8867 130.624 93.9869Z" fill="#81818B"/>
<path d="M187.533 94.967C184.6 94.967 182.234 94.6236 180.432 93.9349C178.63 93.2131 177.306 92.0258 176.458 90.375C175.646 88.6892 175.239 86.4196 175.239 83.5642V72.3678H170.841V66.3312H175.239V58.6951H183.134V66.3312H191.613V72.3678H183.134V83.8742C183.134 85.2156 183.488 86.2474 184.194 86.9693C184.936 87.6579 185.978 88.0014 187.321 88.0014H191.613V94.967H187.533Z" fill="#81818B"/>
<path fill-rule="evenodd" clip-rule="evenodd" d="M201.821 94.3483C203.728 95.1733 205.919 95.5866 208.391 95.5866C210.828 95.5866 212.984 95.1733 214.856 94.3483C216.728 93.5224 218.283 92.3702 219.519 90.8915C220.755 89.4119 221.586 87.7261 222.009 85.8349H214.22C213.867 86.6949 213.196 87.4168 212.207 88.0014C211.218 88.5861 209.945 88.8793 208.391 88.8793C207.428 88.8793 206.568 88.7676 205.81 88.546C205.233 88.3773 204.716 88.1446 204.258 87.8472C203.198 87.1594 202.421 86.1955 201.926 84.9576C201.789 84.6049 201.672 84.236 201.573 83.8518C201.472 83.4625 201.391 83.0575 201.33 82.6358H222.539V79.8494C222.539 77.2696 221.974 74.8962 220.844 72.7293C219.713 70.5275 218.07 68.7561 215.916 67.4146C213.796 66.0387 211.182 65.3507 208.073 65.3507C205.706 65.3507 203.586 65.7637 201.714 66.5892C199.878 67.3802 198.341 68.4636 197.105 69.8396C195.869 71.2155 194.915 72.7809 194.242 74.5352C193.607 76.2547 193.289 78.0606 193.289 79.9525V80.9844C193.289 82.8078 193.607 84.5963 194.242 86.3506C194.915 88.0705 195.869 89.6352 197.105 91.0457C198.376 92.4222 199.947 93.5224 201.821 94.3483ZM201.476 77.5338C201.499 77.4245 201.524 77.317 201.551 77.2111C201.625 76.9194 201.709 76.6398 201.806 76.3727C201.86 76.2206 201.918 76.0723 201.98 75.9281C202.509 74.6553 203.287 73.6923 204.311 73.0388C204.694 72.7945 205.109 72.5959 205.554 72.4431C206.304 72.1867 207.144 72.0584 208.073 72.0584C209.522 72.0584 210.722 72.3853 211.676 73.0388C212.665 73.6578 213.407 74.5693 213.902 75.7732C213.942 75.8704 213.98 75.9693 214.017 76.0694C214.075 76.2289 214.13 76.3926 214.18 76.5604C214.255 76.8101 214.32 77.0686 214.378 77.3357C214.42 77.5325 214.456 77.7341 214.488 77.9405H201.394C201.419 77.8026 201.446 77.6672 201.476 77.5338Z" fill="#81818B"/>
<path d="M226.038 94.6065V66.3312H232.768V73.4526C232.859 73.0292 232.963 72.6229 233.079 72.2333C233.179 71.905 233.286 71.5885 233.403 71.2844C234.145 69.358 235.258 67.9136 236.741 66.9502C238.225 65.9527 240.044 65.4542 242.2 65.4542H242.57C244.761 65.4542 246.579 65.9527 248.028 66.9502C249.512 67.9136 250.625 69.358 251.366 71.2844L251.425 71.4298L251.475 71.5628C251.508 71.4689 251.543 71.3762 251.578 71.2844C252.355 69.358 253.486 67.9136 254.97 66.9502C256.453 65.9527 258.273 65.4542 260.428 65.4542H260.799C262.988 65.4542 264.825 65.9527 266.309 66.9502C267.828 67.9136 268.977 69.358 269.753 71.2844C270.53 73.2108 270.92 75.6187 270.92 78.508V94.6065H262.441V78.0435C262.441 76.4956 262.017 75.2402 261.169 74.2772C260.357 73.3138 259.191 72.8323 257.673 72.8323C256.153 72.8323 254.952 73.3312 254.069 74.3287C253.186 75.2917 252.744 76.5816 252.744 78.1985V94.6065H244.213V78.0435C244.213 76.4956 243.789 75.2402 242.941 74.2772C242.129 73.3138 240.98 72.8323 239.498 72.8323C237.942 72.8323 236.724 73.3312 235.841 74.3287C234.958 75.2917 234.516 76.5816 234.516 78.1985V94.6065H226.038Z" fill="#81818B"/>
<path fill-rule="evenodd" clip-rule="evenodd" d="M293.567 89.1579V94.6065H300.296V77.2696C300.296 74.6553 299.766 72.5229 298.706 70.8715C297.646 69.186 296.093 67.9306 294.044 67.1051C292.031 66.2796 289.54 65.8667 286.572 65.8667C285.929 65.8667 285.258 65.8733 284.558 65.8871C284.144 65.8954 283.72 65.9057 283.287 65.9183C282.121 65.9527 280.99 66.0043 279.896 66.0732L279.059 66.128C278.629 66.1571 278.226 66.1858 277.846 66.2149C277.561 66.2364 277.29 66.2581 277.035 66.2796V73.2453C278.13 73.1763 279.348 73.1074 280.691 73.0388C281.066 73.0197 281.438 73.0018 281.807 72.9852C282.341 72.9611 282.867 72.9403 283.388 72.9221C283.8 72.9075 284.207 72.8946 284.612 72.8838C285.883 72.8494 286.908 72.8323 287.685 72.8323C289.239 72.8323 290.369 73.1933 291.077 73.9158C291.783 74.6382 292.136 75.7217 292.136 77.1666V77.2696H286.89C284.312 77.2696 282.033 77.5965 280.054 78.2501C278.076 78.8691 276.539 79.8494 275.445 81.1909C274.349 82.4983 273.802 84.1837 273.802 86.2474C273.802 88.1395 274.243 89.7733 275.126 91.1497C276.01 92.4903 277.228 93.5224 278.782 94.2443C280.373 94.967 282.21 95.3284 284.293 95.3284C286.307 95.3284 288.003 94.967 289.381 94.2443C290.794 93.5224 291.889 92.4903 292.666 91.1497C292.803 90.923 292.93 90.6886 293.049 90.4449C293.217 90.1006 293.367 89.7383 293.499 89.3582L293.567 89.1579ZM292.136 84.1322V81.8618H286.837C285.353 81.8618 284.206 82.2228 283.393 82.9453C282.616 83.6333 282.227 84.5792 282.227 85.783C282.227 86.3497 282.324 86.8645 282.517 87.329C282.712 87.7943 283.004 88.2077 283.393 88.569C284.206 89.2577 285.353 89.6011 286.837 89.6011C287.119 89.6011 287.393 89.5875 287.656 89.5611C287.871 89.5389 288.081 89.5074 288.283 89.4673C288.671 89.3906 289.038 89.2798 289.381 89.1366C290.158 88.7932 290.794 88.2256 291.288 87.4338C291.783 86.6429 292.066 85.5418 292.136 84.1322Z" fill="#81818B"/>
<path d="M305.37 94.6065V66.3312H312.1V75.6639C312.422 72.9997 313.235 70.8515 314.537 69.2206C316.304 67.0537 318.846 65.9702 322.168 65.9702H323.281V73.0903H321.161C318.83 73.0903 317.028 73.7093 315.756 74.9477C314.484 76.1517 313.848 77.9061 313.848 80.2104V94.6065H305.37Z" fill="#81818B"/>
<path d="M334.032 81.3973H336.84L346.007 94.6065H355.545L343.921 78.3842L353.478 66.3312H344.577L334.032 79.7755V56.9407H325.554V94.6065H334.032V81.3973Z" fill="#81818B"/>
</svg>
