<svg width="400" height="150" viewBox="0 0 400 150" fill="none" xmlns="http://www.w3.org/2000/svg">
<path fill-rule="evenodd" clip-rule="evenodd" d="M56.0293 58.9913C61.249 52.3204 69.6075 47.9986 79.0283 47.9986C88.5045 47.9986 96.9055 52.3714 102.119 59.1092C101.897 59.326 101.695 59.5507 101.512 59.7751C100.557 60.9501 99.8385 62.4635 99.2629 64.0005C98.1037 67.0915 97.2195 71.1292 96.4009 74.9101L96.3281 75.25C95.5113 79.024 94.7521 82.5338 93.8341 85.1393C93.4217 86.3098 93.0306 87.1374 92.6838 87.6674C92.3219 87.1331 91.9113 86.2955 91.4767 85.1082C90.4949 82.4279 89.6691 78.7822 88.7938 74.8895L88.7654 74.762V74.7619C87.9242 71.0229 87.0319 67.0557 85.9193 64.0189C85.3604 62.4935 84.6746 60.9951 83.7776 59.831C82.8973 58.6886 81.4319 57.3993 79.2887 57.3993C77.159 57.3993 75.6869 58.6746 74.7938 59.8042C73.8795 60.9608 73.1667 62.4529 72.5795 63.9791C71.3969 67.0525 70.4301 71.0728 69.5303 74.8589L69.4374 75.25C68.5464 79.0005 67.7135 82.5069 66.768 85.1174C66.4071 86.1143 66.0665 86.8728 65.7582 87.4146C65.4569 86.8753 65.1248 86.1219 64.7737 85.1334C63.8667 82.5785 63.0721 79.1703 62.2187 75.5097L62.0693 74.869C61.1851 71.0806 60.2258 67.0531 59.0264 63.9701C58.4305 62.4382 57.7016 60.9386 56.7584 59.7766C56.5448 59.5136 56.3021 59.2466 56.0293 58.9913ZM52.8702 64.1135C53.1188 64.5799 53.3818 65.158 53.6537 65.857C54.6919 68.5256 55.5714 72.1669 56.4771 76.0474L56.6534 76.8035C57.478 80.3442 58.3358 84.0273 59.3462 86.8728C59.8836 88.3862 60.5326 89.8685 61.3672 91.0205C62.1565 92.1101 63.5725 93.5174 65.7498 93.5174C67.9208 93.5174 69.3401 92.1169 70.1348 91.0323C70.9766 89.8829 71.6362 88.4023 72.1844 86.8879C73.2354 83.9861 74.1303 80.2166 74.9867 76.6092V76.609L75.1177 76.0576C76.0404 72.1748 76.9287 68.5262 77.9593 65.8479C78.4367 64.607 78.8837 63.7426 79.2728 63.2063C79.6416 63.738 80.0629 64.5887 80.5098 65.8082C81.4918 68.4886 82.3168 72.1342 83.1923 76.0269L83.221 76.1544C84.062 79.8935 84.9543 83.8608 86.0668 86.8972C86.6258 88.4233 87.3116 89.9216 88.2086 91.0854C89.0891 92.2281 90.5543 93.5174 92.6971 93.5174C94.8514 93.5174 96.3113 92.2163 97.1813 91.0635C98.0647 89.8938 98.729 88.3905 99.2656 86.8669C100.297 83.9404 101.117 80.1432 101.899 76.5309V76.5308L102.011 76.0064C102.853 72.1184 103.661 68.4871 104.659 65.8266C104.875 65.2478 105.088 64.7543 105.291 64.3398C106.82 67.6694 107.668 71.346 107.668 75.2107C107.668 90.2393 94.8461 102.423 79.0283 102.423C63.2109 102.423 50.3883 90.2393 50.3883 75.2107C50.3883 71.2582 51.2752 67.5024 52.8702 64.1135ZM79.0283 42.5562C60.0474 42.5562 44.6603 57.1761 44.6603 75.2107C44.6603 93.2452 60.0474 107.865 79.0283 107.865C98.0097 107.865 113.396 93.2452 113.396 75.2107C113.396 57.1761 98.0097 42.5562 79.0283 42.5562ZM79.6831 62.7507C79.6831 62.7514 79.6764 62.7565 79.663 62.7639C79.6763 62.7538 79.6831 62.7501 79.6831 62.7507ZM78.8914 62.7544C78.8781 62.7467 78.8715 62.7414 78.8715 62.7407C78.8715 62.74 78.8782 62.7439 78.8914 62.7544ZM92.2616 88.184C92.2616 88.184 92.2678 88.1781 92.2802 88.1705C92.2678 88.1806 92.2616 88.1848 92.2616 88.184ZM93.0944 88.1621C93.1077 88.1697 93.1148 88.1747 93.1148 88.1756C93.1148 88.1764 93.1077 88.1722 93.0944 88.1621ZM65.1628 88.2329C65.1627 88.232 65.171 88.2244 65.1875 88.2135C65.1711 88.2278 65.1628 88.2337 65.1628 88.2329ZM66.3228 88.2185C66.3392 88.2295 66.3474 88.2371 66.3474 88.2379C66.3473 88.2388 66.339 88.2337 66.3228 88.2185Z" fill="#81818B"/>
<path d="M132.373 94.543L124.039 67.4561H131.339L136.282 86.952L142.029 67.4561H150.191L155.939 86.952L160.939 67.4561H168.239L159.847 94.543H152.203L146.11 74.2824L140.018 94.543H132.373Z" fill="#81818B"/>
<path d="M178.95 95.1986C176.498 95.1986 174.486 94.8337 172.915 94.1056C171.345 93.3413 170.176 92.3402 169.409 91.1023C168.643 89.8643 168.26 88.4992 168.26 87.0067C168.26 84.4947 169.294 82.4558 171.363 80.8903C173.432 79.3248 176.537 78.542 180.675 78.542H187.917V77.8867C187.917 76.0299 187.361 74.6647 186.25 73.7909C185.139 72.9171 183.759 72.4803 182.112 72.4803C180.617 72.4803 179.314 72.8261 178.203 73.5179C177.092 74.1732 176.402 75.1562 176.134 76.4668H168.949C169.141 74.5009 169.831 72.7897 171.018 71.3334C172.245 69.8772 173.816 68.7667 175.731 68.0022C177.648 67.2013 179.793 66.8008 182.169 66.8008C186.231 66.8008 189.43 67.7655 191.768 69.6951C194.105 71.6247 195.274 74.3553 195.274 77.8867V94.543H189.008L188.319 90.1744C187.476 91.6306 186.288 92.8315 184.756 93.7787C183.261 94.725 181.326 95.1986 178.95 95.1986ZM180.617 89.7371C182.725 89.7371 184.353 89.0815 185.502 87.7711C186.69 86.4607 187.438 84.8402 187.745 82.9108H181.479C179.525 82.9108 178.127 83.2567 177.283 83.9484C176.441 84.6034 176.019 85.4233 176.019 86.4059C176.019 87.4618 176.441 88.2809 177.283 88.8632C178.127 89.4455 179.237 89.7371 180.617 89.7371Z" fill="#81818B"/>
<path d="M206.855 94.543L196.395 67.4561H204.096L211.338 87.9354L218.58 67.4561H226.282L215.764 94.543H206.855Z" fill="#81818B"/>
<path d="M241.071 95.1986C238.198 95.1986 235.65 94.6155 233.427 93.4508C231.205 92.2854 229.462 90.6472 228.197 88.5354C226.932 86.4244 226.301 83.9848 226.301 81.2179C226.301 78.4146 226.914 75.9207 228.139 73.7363C229.404 71.5519 231.128 69.859 233.313 68.6575C235.534 67.4197 238.14 66.8008 241.129 66.8008C243.926 66.8008 246.398 67.3833 248.544 68.5483C250.689 69.7133 252.357 71.3152 253.544 73.354C254.77 75.3564 255.384 77.5954 255.384 80.0711C255.384 80.4716 255.364 80.8903 255.326 81.3271C255.326 81.7641 255.306 82.2191 255.268 82.6924H233.6C233.753 84.8039 234.52 86.4607 235.899 87.6624C237.316 88.8632 239.022 89.4641 241.015 89.4641C242.508 89.4641 243.754 89.1548 244.75 88.5354C245.784 87.8806 246.551 87.043 247.049 86.0233H254.521C253.985 87.7348 253.084 89.3006 251.82 90.7205C250.593 92.1034 249.061 93.1955 247.221 93.9969C245.421 94.7975 243.37 95.1986 241.071 95.1986ZM241.129 72.4803C239.329 72.4803 237.738 72.9718 236.358 73.9547C234.979 74.9013 234.098 76.3576 233.714 78.3236H247.911C247.796 76.5396 247.107 75.1197 245.842 74.0639C244.577 73.0082 243.007 72.4803 241.129 72.4803Z" fill="#81818B"/>
<path d="M259.272 94.543V55.2233H266.629V94.543H259.272Z" fill="#81818B"/>
<path d="M285.698 95.1986C282.825 95.1986 280.277 94.6155 278.054 93.4508C275.832 92.2854 274.089 90.6472 272.824 88.5354C271.559 86.4244 270.928 83.9848 270.928 81.2179C270.928 78.4146 271.541 75.9207 272.766 73.7363C274.031 71.5519 275.755 69.859 277.94 68.6575C280.162 67.4197 282.767 66.8008 285.756 66.8008C288.553 66.8008 291.025 67.3833 293.171 68.5483C295.316 69.7133 296.984 71.3152 298.171 73.354C299.397 75.3564 300.011 77.5954 300.011 80.0711C300.011 80.4716 299.991 80.8903 299.953 81.3271C299.953 81.7641 299.933 82.2191 299.895 82.6924H278.227C278.38 84.8039 279.147 86.4607 280.526 87.6624C281.943 88.8632 283.649 89.4641 285.642 89.4641C287.135 89.4641 288.381 89.1548 289.377 88.5354C290.412 87.8806 291.178 87.043 291.676 86.0233H299.149C298.612 87.7348 297.711 89.3006 296.447 90.7205C295.22 92.1034 293.688 93.1955 291.848 93.9969C290.048 94.7975 287.998 95.1986 285.698 95.1986ZM285.756 72.4803C283.956 72.4803 282.365 72.9718 280.985 73.9547C279.606 74.9013 278.725 76.3576 278.341 78.3236H292.538C292.423 76.5396 291.734 75.1197 290.469 74.0639C289.204 73.0082 287.634 72.4803 285.756 72.4803Z" fill="#81818B"/>
<path d="M315.682 95.1986C313.153 95.1986 310.93 94.816 309.015 94.0517C307.098 93.2503 305.565 92.1582 304.416 90.7744C303.267 89.3916 302.577 87.7896 302.347 85.9694H309.761C309.991 87.0244 310.605 87.9354 311.601 88.6997C312.635 89.4278 313.957 89.7919 315.566 89.7919C317.176 89.7919 318.345 89.4826 319.072 88.8632C319.839 88.2447 320.222 87.5343 320.222 86.7337C320.222 85.5683 319.686 84.7854 318.613 84.3851C317.54 83.9484 316.045 83.5298 314.129 83.1293C312.904 82.8744 311.659 82.565 310.394 82.2009C309.129 81.8369 307.961 81.3817 306.888 80.8357C305.853 80.2531 305.01 79.525 304.358 78.6512C303.707 77.741 303.382 76.6306 303.382 75.32C303.382 72.9171 304.378 70.8966 306.371 69.2583C308.401 67.6199 311.236 66.8008 314.877 66.8008C318.249 66.8008 320.931 67.5471 322.923 69.0398C324.954 70.5325 326.161 72.5895 326.545 75.2108H319.59C319.168 73.2084 317.578 72.2072 314.82 72.2072C313.44 72.2072 312.367 72.4621 311.601 72.9718C310.873 73.4815 310.509 74.1185 310.509 74.8831C310.509 75.6841 311.064 76.3212 312.176 76.7945C313.287 77.2678 314.762 77.7046 316.601 78.1052C318.593 78.542 320.413 79.0335 322.061 79.5796C323.747 80.0893 325.088 80.8721 326.085 81.9279C327.081 82.9472 327.579 84.4214 327.579 86.3511C327.618 88.0264 327.157 89.5365 326.2 90.884C325.242 92.2306 323.863 93.2865 322.061 94.0517C320.261 94.816 318.134 95.1986 315.682 95.1986Z" fill="#81818B"/>
<path d="M343.58 95.1986C341.051 95.1986 338.828 94.816 336.913 94.0517C334.997 93.2503 333.464 92.1582 332.315 90.7744C331.165 89.3916 330.475 87.7896 330.246 85.9694H337.66C337.89 87.0244 338.503 87.9354 339.499 88.6997C340.534 89.4278 341.855 89.7919 343.465 89.7919C345.074 89.7919 346.243 89.4826 346.971 88.8632C347.737 88.2447 348.121 87.5343 348.121 86.7337C348.121 85.5683 347.584 84.7854 346.511 84.3851C345.439 83.9484 343.944 83.5298 342.028 83.1293C340.802 82.8744 339.557 82.565 338.292 82.2009C337.028 81.8369 335.859 81.3817 334.786 80.8357C333.752 80.2531 332.908 79.525 332.257 78.6512C331.605 77.741 331.28 76.6306 331.28 75.32C331.28 72.9171 332.277 70.8966 334.269 69.2583C336.3 67.6199 339.135 66.8008 342.775 66.8008C346.147 66.8008 348.829 67.5471 350.822 69.0398C352.852 70.5325 354.059 72.5895 354.443 75.2108H347.488C347.067 73.2084 345.477 72.2072 342.718 72.2072C341.338 72.2072 340.265 72.4621 339.499 72.9718C338.771 73.4815 338.407 74.1185 338.407 74.8831C338.407 75.6841 338.962 76.3212 340.074 76.7945C341.185 77.2678 342.66 77.7046 344.499 78.1052C346.492 78.542 348.312 79.0335 349.96 79.5796C351.646 80.0893 352.987 80.8721 353.983 81.9279C354.979 82.9472 355.478 84.4214 355.478 86.3511C355.516 88.0264 355.056 89.5365 354.098 90.884C353.14 92.2306 351.761 93.2865 349.96 94.0517C348.159 94.816 346.032 95.1986 343.58 95.1986Z" fill="#81818B"/>
</svg>
